<?xml version="1.0" ?>
<!-- Uploaded to: SVG Repo, www.svgrepo.com, Generator: SVG Repo Mixer Tools -->
<svg fill="#000000" width="800px" height="800px" viewBox="0 0 96 96" xmlns="http://www.w3.org/2000/svg">
<title/>
<g id="Wallet">
<path d="M77.5,38H77V27.5a.41.41,0,0,0,0-.19.49.49,0,0,0,0-.21.5.5,0,0,0-.53-.47L63,27.45V20.5a.5.5,0,0,0-.5-.5h-29a.5.5,0,0,0-.5.5v8.71l-11.29.9C18.56,30.11,16,32.32,16,35V71.5A2.5,2.5,0,0,0,18.5,74h59A2.5,2.5,0,0,0,80,71.5v-31A2.5,2.5,0,0,0,77.5,38ZM76,27.66V38H63V28.45ZM34,21H62V38H59V27.79a.5.5,0,0,0-.5-.5C56.57,27.29,55,26,55,24.5a.5.5,0,0,0-.5-.5h-12a.5.5,0,0,0-.5.5c0,1.48-2.52,2.79-4.5,2.79a.5.5,0,0,0-.5.5V38H34ZM54,38c-.29-2.62-2.86-4.67-6-4.67S42.32,35.38,42,38H38V28.27c2.17-.18,4.55-1.54,4.94-3.27H54a4.22,4.22,0,0,0,4,3.27V38Zm-1,0H43c.29-2.06,2.41-3.67,5-3.67S52.67,35.94,53,38ZM21.75,31.11,33,30.22V38H17V35C17,32.87,19.11,31.11,21.75,31.11ZM77.5,73h-59A1.5,1.5,0,0,1,17,71.5V39H77.5A1.5,1.5,0,0,1,79,40.5V50H71.5a6.5,6.5,0,0,0,0,13H79v8.5A1.5,1.5,0,0,1,77.5,73ZM79,62H71.5a5.5,5.5,0,0,1,0-11H79Z"/>
<path d="M69,56.5A3.5,3.5,0,1,0,72.5,53,3.5,3.5,0,0,0,69,56.5ZM72.5,54A2.5,2.5,0,1,1,70,56.5,2.5,2.5,0,0,1,72.5,54Z"/>
</g>
</svg>