<?xml version="1.0" encoding="iso-8859-1"?>
<!-- Uploaded to: SVG Repo, www.svgrepo.com, Generator: SVG Repo Mixer Tools -->
<!DOCTYPE svg PUBLIC "-//W3C//DTD SVG 1.1//EN" "http://www.w3.org/Graphics/SVG/1.1/DTD/svg11.dtd">
<svg fill="#000000" height="800px" width="800px" version="1.1" id="Capa_1" xmlns="http://www.w3.org/2000/svg" xmlns:xlink="http://www.w3.org/1999/xlink" 
	 viewBox="0 0 297 297" xml:space="preserve">
<path d="M287.116,24.461H9.884C4.426,24.461,0,28.886,0,34.344v81.54c0,5.459,4.426,9.884,9.884,9.884h6.425v136.888
	c0,5.459,4.425,9.884,9.884,9.884h244.615c5.459,0,9.884-4.425,9.884-9.884V125.768h6.425c5.458,0,9.884-4.425,9.884-9.884v-81.54
	C297,28.886,292.574,24.461,287.116,24.461z M99.317,104.336l29.488,8.014l24.241,85.936l-50.439,14.317l-24.239-85.918
	L99.317,104.336z M277.232,106H147.552l-1.24-4.403c-0.943-3.342-3.57-5.944-6.922-6.854l-35.226-9.573l-11.549-40.94h184.617V106z
	 M19.768,44.229h52.31l13.068,46.322L70.664,106H19.768V44.229z M260.925,252.771H36.075V125.768h21.561
	c0.057,0.306,0.108,0.611,0.194,0.913l28.443,100.818c0.712,2.524,2.399,4.663,4.69,5.943c1.487,0.831,3.148,1.256,4.822,1.256
	c0.904,0,1.813-0.124,2.697-0.376l69.454-19.715c5.245-1.49,8.294-6.944,6.814-12.191l-21.622-76.648h107.796V252.771z"/>
</svg>