<?xml version="1.0" encoding="iso-8859-1"?>
<!-- Uploaded to: SVG Repo, www.svgrepo.com, Generator: SVG Repo Mixer Tools -->
<svg fill="#000000" height="800px" width="800px" version="1.1" id="Layer_1" xmlns="http://www.w3.org/2000/svg" xmlns:xlink="http://www.w3.org/1999/xlink" 
	 viewBox="0 0 512.004 512.004" xml:space="preserve">
<g>
	<g>
		<path d="M102.404,59.735c-23.526,0-42.667,19.14-42.667,42.667c0,23.526,19.14,42.667,42.667,42.667
			c23.526,0,42.667-19.14,42.667-42.667C145.071,78.876,125.93,59.735,102.404,59.735z"/>
	</g>
</g>
<g>
	<g>
		<path d="M409.604,0.002H105.399c-53.291,0-99.942,39.475-104.934,92.535c-5.726,60.885,42.223,112.265,101.939,112.265h85.333
			v264.533c0,2.261,0.896,4.429,2.5,6.033l34.133,34.133c3.328,3.328,8.738,3.328,12.066,0l28.1-28.1l28.1,28.1
			c3.328,3.328,8.738,3.328,12.066,0l28.1-28.1l28.1,28.1c3.328,3.328,8.738,3.328,12.066,0l28.1-28.1l28.1,28.1
			c3.328,3.328,8.738,3.328,12.066,0l28.1-28.1l28.1,28.1c1.63,1.63,3.814,2.5,6.033,2.5c1.101,0,2.21-0.205,3.268-0.649
			c3.183-1.314,5.265-4.437,5.265-7.885V102.402C512.004,45.852,466.154,0.002,409.604,0.002z M186.543,116.892
			c-5.854,35.328-34.355,63.812-69.675,69.649c-58.317,9.626-108.245-40.32-98.594-98.628C24.119,52.584,52.62,24.1,87.948,18.263
			C146.257,8.629,196.194,58.583,186.543,116.892z M452.271,409.602h-204.8c-4.71,0-8.533-3.823-8.533-8.533
			s3.823-8.533,8.533-8.533h204.8c4.71,0,8.533,3.823,8.533,8.533S456.981,409.602,452.271,409.602z M452.271,366.935h-204.8
			c-4.71,0-8.533-3.823-8.533-8.533s3.823-8.533,8.533-8.533h204.8c4.71,0,8.533,3.823,8.533,8.533S456.981,366.935,452.271,366.935
			z M452.271,324.269h-204.8c-4.71,0-8.533-3.823-8.533-8.533s3.823-8.533,8.533-8.533h204.8c4.71,0,8.533,3.823,8.533,8.533
			S456.981,324.269,452.271,324.269z"/>
	</g>
</g>
</svg>