<?xml version="1.0" ?>
<!-- Uploaded to: SVG Repo, www.svgrepo.com, Generator: SVG Repo Mixer Tools -->
<svg fill="#000000" width="800px" height="800px" viewBox="0 0 100 100" enable-background="new 0 0 100 100" id="Layer_1" version="1.1" xml:space="preserve" xmlns="http://www.w3.org/2000/svg" xmlns:xlink="http://www.w3.org/1999/xlink">
<g>
<path d="M84.817,35.763c-1.238,0-2.245,1.007-2.245,2.245v22.26c0,1.238,1.007,2.245,2.245,2.245s2.245-1.007,2.245-2.245v-22.26   C87.063,36.77,86.055,35.763,84.817,35.763z M85.063,60.268c0,0.271-0.49,0.271-0.49,0v-22.26c0-0.135,0.11-0.245,0.245-0.245   s0.245,0.11,0.245,0.245V60.268z"/>
<path d="M48.029,34.303c-0.357-0.619-1.375-0.619-1.732,0L32.36,58.442c-0.178,0.31-0.178,0.69,0,1c0.179,0.31,0.509,0.5,0.866,0.5   h27.873c0.357,0,0.688-0.19,0.866-0.5c0.178-0.31,0.178-0.69,0-1L48.029,34.303z M34.958,57.942l12.205-21.139l12.205,21.139   H34.958z"/>
<path d="M46.163,42.985v7.583c0,0.552,0.448,1,1,1s1-0.448,1-1v-7.583c0-0.552-0.448-1-1-1S46.163,42.433,46.163,42.985z"/>
<path d="M47.163,52.83c-0.552,0-1,0.448-1,1v0.97c0,0.552,0.448,1,1,1s1-0.448,1-1v-0.97C48.163,53.278,47.715,52.83,47.163,52.83z   "/>
<path d="M90.272,62.5v-25C93.821,35.517,96,31.833,96,27.741c0-3.666-1.803-7.102-4.822-9.191   c-0.306-0.212-0.704-0.237-1.033-0.063c-0.329,0.173-0.536,0.514-0.536,0.886v7.074l-1.49,1.081v-8.155c0-0.552-0.448-1-1-1h-8.093   H7.206c-0.552,0-1,0.448-1,1v51.642H5.944C4.872,71.015,4,71.882,4,72.948v1.262c0,4.09,3.327,7.417,7.417,7.417h67.609h3.882   c2.959,0,5.511-1.746,6.701-4.258v3.258c0,0.373,0.207,0.714,0.537,0.886c0.146,0.076,0.304,0.114,0.463,0.114   c0.201,0,0.4-0.061,0.571-0.179c3.018-2.1,4.82-5.54,4.82-9.2C96,68.163,93.821,64.483,90.272,62.5z M86.119,28.978l-1.301,0.943   l-1.366-0.991v-5.029c0-0.552-0.448-1-1-1h-2.426v-2.529h6.093V28.978z M81.452,27.479l-1.426-1.033v-1.545h1.426V27.479z    M79.362,62.499c-0.017,0.009-0.032,0.022-0.049,0.031c-0.021,0.012-0.042,0.024-0.063,0.036c-0.177,0.101-0.366,0.215-0.49,0.307   c-0.072,0.045-0.139,0.101-0.211,0.148c-0.183,0.124-0.367,0.246-0.542,0.38c-0.03,0.023-0.064,0.041-0.093,0.065l-0.339,0.278   c-0.15,0.119-0.285,0.243-0.402,0.356c-0.051,0.048-0.101,0.096-0.151,0.145c-0.081,0.076-0.167,0.162-0.258,0.258l-0.057,0.058   c-0.013,0.013-0.07,0.076-0.083,0.09c-0.092,0.103-0.19,0.212-0.258,0.296c-0.015,0.018-0.028,0.037-0.043,0.054   c-0.152,0.178-0.294,0.365-0.435,0.553c-0.147,0.194-0.288,0.389-0.42,0.59c-0.045,0.07-0.1,0.132-0.144,0.202h-62.45V24.901H74   c-0.007,0.026-0.009,0.053-0.016,0.08c-0.061,0.231-0.121,0.474-0.148,0.655c-0.042,0.196-0.071,0.396-0.092,0.573   c-0.012,0.089-0.019,0.179-0.029,0.268c-0.025,0.196-0.048,0.396-0.058,0.591c-0.011,0.229-0.022,0.445-0.022,0.673   c0,4.097,2.179,7.781,5.728,9.759V62.499z M8.206,20.373H76.41c-0.077,0.088-0.146,0.183-0.221,0.274   c-0.057,0.069-0.113,0.139-0.169,0.209c-0.288,0.368-0.556,0.753-0.797,1.158c-0.039,0.066-0.074,0.133-0.112,0.2   c-0.128,0.225-0.251,0.453-0.364,0.688H11.873c-0.552,0-1,0.448-1,1v43.446c0,0.552,0.448,1,1,1h62.468   c-0.037,0.1-0.07,0.197-0.098,0.284c-0.067,0.172-0.119,0.351-0.138,0.447c-0.006,0.025-0.017,0.048-0.023,0.073   c-0.016,0.049-0.028,0.093-0.041,0.136c-0.003,0.01-0.006,0.02-0.009,0.03c-0.017,0.061-0.031,0.114-0.038,0.151   c-0.034,0.101-0.057,0.198-0.071,0.295c-0.048,0.168-0.083,0.346-0.103,0.508c-0.046,0.245-0.083,0.493-0.111,0.743H58.227   c-0.004,0-0.008-0.002-0.012-0.002H36.11c-0.004,0-0.008,0.002-0.012,0.002H8.206V20.373z M37.11,73.015h20.104v1.575H37.11V73.015   z M11.417,79.627C8.43,79.627,6,77.197,6,74.21l-0.056-1.196h1.262H35.11v2.575c0,0.552,0.448,1,1,1h22.104c0.552,0,1-0.448,1-1   v-2.575h14.446c0.01,0.14,0.031,0.278,0.046,0.417c0.01,0.098,0.019,0.196,0.032,0.294c0.053,0.394,0.122,0.784,0.216,1.167   c0.014,0.058,0.033,0.114,0.048,0.171c0.088,0.335,0.192,0.664,0.31,0.989c0.034,0.094,0.068,0.188,0.105,0.282   c0.144,0.367,0.303,0.728,0.485,1.077c0.018,0.035,0.04,0.068,0.058,0.102c0.17,0.319,0.359,0.627,0.559,0.928   c0.056,0.084,0.112,0.168,0.171,0.251c0.227,0.322,0.465,0.637,0.727,0.935H11.417z M86.113,71.015h-2.589l1.294-0.937   L86.113,71.015z M88.325,74.21c0,2.987-2.43,5.417-5.417,5.417h-2.882v-6.083l0.734-0.53h6.359h1.206V74.21z M91.609,78.426v-5.393   c0-0.321-0.154-0.622-0.414-0.81l-3.49-2.525c0,0,0,0,0,0l-2.302-1.665c-0.175-0.126-0.38-0.19-0.586-0.19s-0.412,0.063-0.586,0.19   l-5.791,4.189c-0.26,0.188-0.415,0.489-0.415,0.811v5.382c-0.017-0.019-0.038-0.036-0.055-0.055   c-0.051-0.058-0.097-0.119-0.147-0.178c-0.168-0.199-0.328-0.403-0.479-0.615c-0.061-0.085-0.119-0.172-0.177-0.259   c-0.138-0.208-0.266-0.422-0.386-0.641c-0.042-0.077-0.088-0.152-0.128-0.23c-0.151-0.295-0.289-0.597-0.408-0.906   c-0.019-0.05-0.033-0.102-0.051-0.152c-0.096-0.262-0.179-0.529-0.251-0.8c-0.027-0.101-0.049-0.204-0.073-0.306   c-0.054-0.235-0.097-0.474-0.132-0.714c-0.015-0.1-0.031-0.2-0.043-0.301c-0.037-0.334-0.062-0.671-0.062-1.011l0.001-0.097   c0.005-0.039,0.008-0.078,0.009-0.117c0.009-0.472,0.057-0.941,0.151-1.454c0.013-0.104,0.03-0.209,0.063-0.307   c0.024-0.072,0.04-0.146,0.047-0.222c0.001-0.005,0.003-0.013,0.006-0.022c0.025-0.102,0.05-0.195,0.084-0.297   c0.006-0.019,0.011-0.039,0.016-0.058c0.004-0.013,0.006-0.019,0.01-0.034c0.021-0.094,0.049-0.195,0.102-0.333   c0.056-0.168,0.122-0.337,0.192-0.506c0.131-0.33,0.285-0.656,0.458-0.972c0.194-0.353,0.42-0.682,0.655-1.003   c0.1-0.134,0.205-0.267,0.315-0.399c0.216-0.263,0.438-0.521,0.682-0.757c0.013-0.012,0.019-0.02,0.032-0.032   c0.038-0.038,0.086-0.076,0.126-0.114c0.294-0.271,0.604-0.526,0.933-0.758c0.056-0.038,0.12-0.079,0.181-0.118   c0.347-0.233,0.707-0.45,1.089-0.636c0.008-0.004,0.015-0.008,0.022-0.012c0.053-0.027,0.097-0.064,0.144-0.099   c0.026-0.02,0.057-0.034,0.081-0.056c0.048-0.044,0.086-0.097,0.125-0.149c0.016-0.022,0.037-0.039,0.051-0.062   c0.037-0.059,0.061-0.124,0.085-0.19c0.008-0.021,0.021-0.04,0.027-0.061c0.026-0.089,0.039-0.182,0.039-0.277v-26.21   c0-0.382-0.218-0.731-0.562-0.899c-3.187-1.553-5.166-4.717-5.166-8.255c0-0.289,0.015-0.575,0.041-0.859   c0.005-0.047,0.013-0.102,0.019-0.153c0.025-0.231,0.058-0.461,0.1-0.689c0.003-0.015,0.005-0.027,0.008-0.043   c0.01-0.066,0.034-0.147,0.049-0.216c0.036-0.167,0.077-0.332,0.123-0.496c0.024-0.088,0.049-0.178,0.08-0.276   c0.077-0.245,0.16-0.489,0.258-0.728c0-0.001,0-0.001,0.001-0.002c0.152-0.372,0.334-0.726,0.53-1.072   c0.038-0.067,0.075-0.135,0.115-0.2c0.198-0.328,0.415-0.644,0.652-0.944c0.044-0.056,0.092-0.109,0.137-0.164   c0.087-0.105,0.187-0.199,0.279-0.3v2.302v3.055c0,0.321,0.154,0.622,0.414,0.81l5.79,4.199c0.088,0.064,0.183,0.111,0.282,0.143   c0.039,0.013,0.08,0.011,0.12,0.019c0.062,0.012,0.123,0.029,0.185,0.029c0,0,0,0,0,0c0.059,0,0.117-0.017,0.175-0.027   c0.043-0.008,0.087-0.007,0.129-0.02c0.099-0.032,0.194-0.079,0.282-0.142l2.302-1.666c0.007-0.005,0.012-0.012,0.019-0.018   l3.472-2.518c0.259-0.188,0.412-0.489,0.412-0.809v-5.389C93.131,23.24,94,25.435,94,27.741c0,3.533-1.98,6.697-5.167,8.255   c-0.343,0.168-0.561,0.517-0.561,0.898v26.21c0,0.382,0.218,0.73,0.561,0.898C92.02,65.562,94,68.721,94,72.248   C94,74.551,93.131,76.748,91.609,78.426z"/>
</g>
</svg>