<?xml version="1.0" encoding="utf-8"?>
<!-- Uploaded to: SVG Repo, www.svgrepo.com, Generator: SVG Repo Mixer Tools -->
<svg fill="#000000" width="800px" height="800px" viewBox="0 0 32 32" version="1.1" xmlns="http://www.w3.org/2000/svg">
<title>tags</title>
<path d="M23.531 15.47l-10.501-10.5c-0.136-0.136-0.323-0.22-0.53-0.22-0 0-0 0-0 0h-10.5c-0.414 0-0.75 0.336-0.75 0.75v0 10.5c0 0 0 0 0 0 0 0.207 0.084 0.395 0.22 0.53l10.5 10.501c0.136 0.135 0.323 0.219 0.53 0.219s0.394-0.084 0.53-0.219l10.501-10.501c0.135-0.136 0.218-0.323 0.218-0.53s-0.083-0.394-0.218-0.53l0 0zM12.5 25.439l-9.75-9.75v-9.439h9.439l9.75 9.75zM7.25 8.25c-1.381 0-2.5 1.119-2.5 2.5s1.119 2.5 2.5 2.5c1.381 0 2.5-1.119 2.5-2.5v0c-0.001-1.38-1.12-2.499-2.5-2.5h-0zM7.25 11.75c-0.552 0-1-0.448-1-1s0.448-1 1-1c0.552 0 1 0.448 1 1v0c-0 0.552-0.448 1-1 1h-0zM30.531 15.47l-12-12c-0.136-0.135-0.323-0.218-0.529-0.218-0.414 0-0.75 0.336-0.75 0.75 0 0.206 0.083 0.393 0.218 0.529l11.47 11.47-11.47 11.469c-0.136 0.136-0.22 0.324-0.22 0.531 0 0.415 0.336 0.751 0.751 0.751 0.207 0 0.395-0.084 0.531-0.22v0l12-12.001c0.135-0.136 0.218-0.323 0.218-0.53s-0.083-0.394-0.218-0.53l0 0z"></path>
</svg>