<?xml version="1.0" encoding="iso-8859-1"?>
<!-- Uploaded to: SVG Repo, www.svgrepo.com, Generator: SVG Repo Mixer Tools -->
<svg fill="#000000" version="1.1" id="Layer_1" xmlns="http://www.w3.org/2000/svg" xmlns:xlink="http://www.w3.org/1999/xlink" 
	 viewBox="0 0 491.52 491.52" xml:space="preserve">
<g>
	<g>
		<path d="M471.04,358.4V30.72H20.48V358.4H0v55.44l46.96,46.96h397.6l46.96-46.96V358.4H471.04z M40.96,51.2h409.6v307.2H40.96
			V51.2z M471.04,405.36l-34.96,34.96H55.44l-34.96-34.96v-26.48h450.56V405.36z"/>
	</g>
</g>
<g>
	<g>
		<rect x="276.48" y="399.36" width="20.48" height="20.48"/>
	</g>
</g>
<g>
	<g>
		<rect x="194.56" y="399.36" width="20.48" height="20.48"/>
	</g>
</g>
<g>
	<g>
		<rect x="235.52" y="399.36" width="20.48" height="20.48"/>
	</g>
</g>
<g>
	<g>
		<path d="M397.7,75.38c-2.86-3.46-7.64-4.62-11.77-2.93L97.81,190.61c-3.61,1.48-6.07,4.9-6.33,8.8c-0.25,3.9,1.74,7.61,5.13,9.56
			l48.84,27.964v84.576c0,4.32,2.72,8.18,6.79,9.64c1.13,0.4,2.29,0.6,3.45,0.6c3,0,5.93-1.32,7.91-3.74l45.093-54.863
			l42.138,24.133c1.6,0.91,3.35,1.35,5.08,1.35c3.36,0,6.65-1.66,8.6-4.67l133.9-206.47C400.85,83.73,400.56,78.83,397.7,75.38z
			 M165.93,292.92v-54.58l69.79-30.33L165.93,292.92z M252.6,274.69l-30.714-17.596l56.634-68.904c3.01-3.65,3.11-8.89,0.26-12.67
			c-2.85-3.79-7.93-5.13-12.25-3.22l-109.58,47.61l-31.98-18.31l238.44-97.78L252.6,274.69z"/>
	</g>
</g>
</svg>