<?xml version="1.0" encoding="utf-8"?>

<!-- Uploaded to: SVG Repo, www.svgrepo.com, Generator: SVG Repo Mixer Tools -->
<svg version="1.1" id="Icons" xmlns="http://www.w3.org/2000/svg" xmlns:xlink="http://www.w3.org/1999/xlink" 
	 viewBox="0 0 32 32" xml:space="preserve">
<style type="text/css">
	.st0{fill:none;stroke:#000000;stroke-width:2;stroke-linecap:round;stroke-linejoin:round;stroke-miterlimit:10;}
	
		.st1{fill:none;stroke:#000000;stroke-width:2;stroke-linecap:round;stroke-linejoin:round;stroke-miterlimit:10;stroke-dasharray:3;}
	.st2{fill:none;stroke:#000000;stroke-width:2;stroke-linejoin:round;stroke-miterlimit:10;}
	.st3{fill:none;}
</style>
<path class="st0" d="M30,21.6c-0.9,0.2-1.8,0-2.1-0.6c-0.4-0.6-0.1-1.4,0.5-2.1c-0.7-0.7-1.7-1.3-2.7-1.6c-0.3,0.9-0.9,1.5-1.6,1.5
	c-0.7,0-1.3-0.6-1.6-1.5c-1,0.3-2,0.8-2.7,1.6c0.6,0.7,0.9,1.5,0.5,2.1c-0.4,0.6-1.2,0.8-2.1,0.6c-0.1,0.5-0.2,1-0.2,1.6
	s0.1,1.1,0.2,1.6c0.9-0.2,1.8,0,2.1,0.6c0.4,0.6,0.1,1.4-0.5,2.1c0.7,0.7,1.7,1.3,2.7,1.6c0.3-0.9,0.9-1.5,1.6-1.5
	c0.7,0,1.3,0.6,1.6,1.5c1-0.3,2-0.8,2.7-1.6c-0.6-0.7-0.9-1.5-0.5-2.1c0.4-0.6,1.2-0.8,2.1-0.6c0.1-0.5,0.2-1,0.2-1.6
	S30.1,22.1,30,21.6z"/>
<path class="st0" d="M9,13V7c0-2.2,1.8-4,4-4h0c2.2,0,4,1.8,4,4v6"/>
<polyline class="st0" points="22,29 3,29 5,9 21,9 22.5,17.2 "/>
<line class="st0" x1="24" y1="23" x2="24" y2="23"/>
<rect x="-360" y="-144" class="st3" width="536" height="680"/>
</svg>