<?xml version="1.0" encoding="utf-8"?><!-- Uploaded to: SVG Repo, www.svgrepo.com, Generator: SVG Repo Mixer Tools -->
<svg fill="#000000" width="800px" height="800px" viewBox="0 0 45.998 45.998" xmlns="http://www.w3.org/2000/svg">
  <path id="_06.Tags" data-name="06.Tags" d="M47,24.983V25a.981.981,0,0,1-.4.776L27.662,44.719a.977.977,0,0,1-1.381-1.381L45,24.623V18a1,1,0,0,1,2,0v6.973S47,24.98,47,24.983ZM19.806,46.575a.854.854,0,0,1-.095.144,1.05,1.05,0,0,1-1.43,0,.919.919,0,0,1-.095-.144L1.425,29.813a.9.9,0,0,1-.144-.095,1.049,1.049,0,0,1,0-1.429.968.968,0,0,1,.144-.095l22.8-22.8A.982.982,0,0,1,25,5h4.056a5.711,5.711,0,0,1,1.67-3.683l.016.018A1.039,1.039,0,0,1,31.5,1a1.109,1.109,0,0,1,1.072,1.143,1.143,1.143,0,0,1-.441.9A3.27,3.27,0,0,0,31.193,5H36a.977.977,0,0,1,.775.395l5.83,5.83A.984.984,0,0,1,43,12V23a.978.978,0,0,1-.4.775ZM41,12.385,35.615,7H31.4a2.988,2.988,0,0,0,.725,1.1h0a.98.98,0,0,1,.127.092l.018-.018A5.817,5.817,0,0,1,34,12.432c0,.042-.01.079-.012.12a3.993,3.993,0,1,1-2.168-.53A3.34,3.34,0,0,0,30.868,9.9a1.162,1.162,0,0,1-.129-.092l-.016.018A5.537,5.537,0,0,1,29.17,7H25.377l-22,22L19,44.623l22-22V12.385ZM30.867,14.961a2.9,2.9,0,0,0,.617-.883,2.006,2.006,0,1,0,2.067.681,3.682,3.682,0,0,1-1.3,1.909A1.032,1.032,0,0,1,31.5,17a1.108,1.108,0,0,1-1.07-1.143A1.142,1.142,0,0,1,30.867,14.961ZM12.282,27.289a.977.977,0,0,1,1.381,0l7.049,7.049a.977.977,0,0,1-1.381,1.381L12.282,28.67A.977.977,0,0,1,12.282,27.289Zm4-4a.977.977,0,0,1,1.381,0l7.049,7.049a.977.977,0,0,1-1.381,1.381L16.282,24.67A.977.977,0,0,1,16.282,23.289Z" transform="translate(-1 -1.003)" fill-rule="evenodd"/>
</svg>